<svg width="83" height="24" viewBox="0 0 83 24" fill="none" xmlns="http://www.w3.org/2000/svg">
<path d="M17.8802 1.15117C18.4488 0.424556 19.3201 0 20.2428 0H77.3248C79.7348 0 81.161 2.69813 79.8037 4.68959L67.5355 22.6896C66.9767 23.5094 66.0487 24 65.0565 24H6.15701C3.65644 24 2.25338 21.1204 3.79441 19.1512L17.8802 1.15117Z" fill="#F88240"/>
<path d="M37.6705 6.36364V18H36.0568L30.142 9.46591H30.0341V18H28.2784V6.36364H29.9034L35.8239 14.9091H35.9318V6.36364H37.6705ZM43.8565 18.1761C42.9967 18.1761 42.2562 17.9924 41.6349 17.625C41.0175 17.2538 40.5402 16.733 40.2031 16.0625C39.8698 15.3883 39.7031 14.5985 39.7031 13.6932C39.7031 12.7992 39.8698 12.0114 40.2031 11.3295C40.5402 10.6477 41.0099 10.1155 41.6122 9.73295C42.2183 9.35038 42.9266 9.15909 43.7372 9.15909C44.2296 9.15909 44.7069 9.24053 45.169 9.40341C45.6312 9.56629 46.0459 9.82197 46.4134 10.1705C46.7808 10.5189 47.0705 10.9716 47.2827 11.5284C47.4948 12.0814 47.6009 12.7538 47.6009 13.5455V14.1477H40.6634V12.875H45.9361C45.9361 12.428 45.8452 12.0322 45.6634 11.6875C45.4815 11.339 45.2259 11.0644 44.8963 10.8636C44.5705 10.6629 44.188 10.5625 43.7486 10.5625C43.2713 10.5625 42.8546 10.6799 42.4986 10.9148C42.1463 11.1458 41.8736 11.4489 41.6804 11.8239C41.491 12.1951 41.3963 12.5985 41.3963 13.0341V14.0284C41.3963 14.6117 41.4986 15.108 41.7031 15.517C41.9115 15.9261 42.2012 16.2386 42.5724 16.4545C42.9437 16.6667 43.3774 16.7727 43.8736 16.7727C44.1955 16.7727 44.4891 16.7273 44.7543 16.6364C45.0194 16.5417 45.2486 16.4015 45.4418 16.2159C45.6349 16.0303 45.7827 15.8011 45.8849 15.5284L47.4929 15.8182C47.3641 16.2917 47.133 16.7064 46.7997 17.0625C46.4702 17.4148 46.0554 17.6894 45.5554 17.8864C45.0592 18.0795 44.4929 18.1761 43.8565 18.1761ZM51.3622 18L48.794 9.27273H50.5497L52.2599 15.6818H52.3452L54.0611 9.27273H55.8168L57.5213 15.6534H57.6065L59.3054 9.27273H61.0611L58.4986 18H56.7656L54.9929 11.6989H54.8622L53.0895 18H51.3622Z" fill="white"/>
</svg>
