<svg width="48" height="48" viewBox="0 0 48 48" fill="none" xmlns="http://www.w3.org/2000/svg">
<circle cx="24" cy="24" r="24" fill="#438565"/>
<path fill-rule="evenodd" clip-rule="evenodd" d="M19.5434 31.9518C20.2574 31.9518 20.8384 32.5318 20.8384 33.2458C20.8384 33.9598 20.2574 34.5408 19.5434 34.5408C18.8294 34.5408 18.2494 33.9598 18.2494 33.2458C18.2494 32.5318 18.8294 31.9518 19.5434 31.9518ZM30.8237 31.9518C31.5387 31.9518 32.1197 32.5318 32.1197 33.2458C32.1197 33.9598 31.5387 34.5408 30.8237 34.5408C30.1097 34.5408 29.5297 33.9598 29.5297 33.2458C29.5297 32.5318 30.1097 31.9518 30.8237 31.9518ZM15.2676 15.0094L17.3476 15.3694C17.6826 15.4284 17.9376 15.7064 17.9666 16.0464L18.2016 18.8474L19.0754 18.8478C19.218 18.8479 19.3591 18.8479 19.4987 18.848L21.103 18.8488C21.2309 18.8488 21.3573 18.8489 21.4824 18.8489L23.2538 18.8499C23.3651 18.85 23.475 18.85 23.5836 18.8501L24.825 18.8509C24.9233 18.851 25.0204 18.851 25.1163 18.8511L26.2081 18.8519C26.2943 18.852 26.3793 18.852 26.4632 18.8521L27.4151 18.8529C27.49 18.853 27.5638 18.8531 27.6365 18.8531L28.2621 18.8538C28.3285 18.8538 28.3939 18.8539 28.4582 18.854L29.1828 18.8548C29.2393 18.8549 29.2949 18.855 29.3495 18.855L29.9613 18.8559C30.0087 18.8559 30.0552 18.856 30.101 18.8561L30.4898 18.8567C30.5305 18.8568 30.5704 18.8569 30.6096 18.857L31.0427 18.8578C31.0758 18.8579 31.1082 18.858 31.1399 18.8581L31.4065 18.8587C31.4341 18.8588 31.461 18.8589 31.4873 18.8589L31.773 18.8598C31.7945 18.8599 31.8153 18.86 31.8356 18.8601L32.0034 18.8608C32.0204 18.8608 32.037 18.8609 32.053 18.861L32.2227 18.8619C32.2351 18.862 32.247 18.8621 32.2584 18.8621L32.351 18.8628C32.3601 18.8629 32.3688 18.863 32.3772 18.8631L32.4438 18.8638C32.4503 18.8639 32.4564 18.864 32.4623 18.864L32.5076 18.8647C32.5118 18.8648 32.5159 18.8649 32.5197 18.865L32.5483 18.8657C32.551 18.8658 32.5534 18.8659 32.5557 18.866L32.5764 18.8669L32.58 18.8672C32.5897 18.8681 32.5926 18.8684 32.5926 18.8684C33.1496 18.9494 33.6396 19.2404 33.9736 19.6884C34.3076 20.1354 34.4476 20.6864 34.3676 21.2384L33.4186 27.7964C33.2396 29.0444 32.1556 29.9854 30.8956 29.9854H19.9746C18.6576 29.9854 17.5426 28.9574 17.4356 27.6424L16.5196 16.7484L15.0126 16.4884C14.6036 16.4164 14.3306 16.0294 14.4006 15.6204C14.4726 15.2114 14.8676 14.9454 15.2676 15.0094ZM18.8748 20.3478L18.3276 20.3474L18.9306 27.5194C18.9746 28.0714 19.4256 28.4854 19.9766 28.4854H30.8936C31.4146 28.4854 31.8596 28.0974 31.9336 27.5824L32.8836 21.0234C32.9056 20.8674 32.8666 20.7114 32.7716 20.5854C32.6776 20.4584 32.5396 20.3764 32.3836 20.3544C32.3764 20.3547 32.3591 20.355 32.3323 20.3552L32.2235 20.3558C32.2008 20.3559 32.1757 20.356 32.1485 20.3561L31.582 20.3569C31.5342 20.357 31.4845 20.357 31.433 20.357L30.101 20.357C30.0267 20.3569 29.9509 20.3569 29.8739 20.3569L28.3538 20.3559C28.2627 20.3559 28.1706 20.3558 28.0776 20.3557L27.2175 20.3551C27.1195 20.355 27.0208 20.3549 26.9214 20.3548L26.0103 20.354C25.9074 20.3539 25.8041 20.3538 25.7002 20.3537L25.0727 20.3531C24.9674 20.353 24.8617 20.3529 24.7559 20.3528L23.7982 20.352C23.6914 20.3519 23.5846 20.3518 23.4777 20.3517L22.8371 20.3511C22.7304 20.351 22.6239 20.3509 22.5176 20.3508L21.8824 20.3502C21.7771 20.3501 21.6721 20.35 21.5674 20.3499L20.6369 20.3491C20.5349 20.349 20.4336 20.3489 20.3328 20.3489L19.1569 20.348C19.062 20.3479 18.9679 20.3478 18.8748 20.3478ZM29.2875 22.5437C29.7015 22.5437 30.0375 22.8797 30.0375 23.2937C30.0375 23.7077 29.7015 24.0437 29.2875 24.0437H26.5155C26.1005 24.0437 25.7655 23.7077 25.7655 23.2937C25.7655 22.8797 26.1005 22.5437 26.5155 22.5437H29.2875Z" fill="white"/>
</svg>
