<svg width="25" height="28" viewBox="0 0 25 28" fill="none" xmlns="http://www.w3.org/2000/svg">
<path fill-rule="evenodd" clip-rule="evenodd" d="M10.3242 24.106C10.8422 24.683 11.5072 25 12.1972 25H12.1982C12.8912 25 13.5592 24.683 14.0782 24.105C14.3562 23.798 14.8302 23.773 15.1372 24.05C15.4452 24.327 15.4702 24.802 15.1932 25.109C14.3852 26.006 13.3222 26.5 12.1982 26.5H12.1962C11.0752 26.499 10.0142 26.005 9.20923 25.108C8.93223 24.801 8.95723 24.326 9.26523 24.05C9.57323 23.772 10.0472 23.797 10.3242 24.106ZM12.247 5C16.692 5 19.678 8.462 19.678 11.695C19.678 13.358 20.101 14.063 20.55 14.811C20.994 15.549 21.497 16.387 21.497 17.971C21.148 22.018 16.923 22.348 12.247 22.348C7.57103 22.348 3.34503 22.018 3.00001 18.035C2.99703 16.387 3.50003 15.549 3.94403 14.811L4.10077 14.5472C4.4867 13.8839 4.81603 13.1624 4.81603 11.695C4.81603 8.462 7.80203 5 12.247 5ZM12.247 6.5C8.75203 6.5 6.31603 9.238 6.31603 11.695C6.31603 13.774 5.73903 14.735 5.22903 15.583C4.82003 16.264 4.49703 16.802 4.49703 17.971C4.66403 19.857 5.90903 20.848 12.247 20.848C18.55 20.848 19.834 19.813 20 17.906C19.997 16.802 19.674 16.264 19.265 15.583C18.755 14.735 18.178 13.774 18.178 11.695C18.178 9.238 15.742 6.5 12.247 6.5Z" fill="black"/>
<circle cx="18.5" cy="6.5" r="6.5" fill="#F4723A"/>
<path d="M16.517 9V8.23864L18.5369 6.25852C18.7301 6.06345 18.8911 5.89015 19.0199 5.73864C19.1487 5.58712 19.2453 5.44034 19.3097 5.2983C19.3741 5.15625 19.4062 5.00473 19.4062 4.84375C19.4062 4.66004 19.3646 4.50284 19.2812 4.37216C19.1979 4.23958 19.0833 4.13731 18.9375 4.06534C18.7917 3.99337 18.6259 3.95739 18.4403 3.95739C18.2491 3.95739 18.0814 3.99716 17.9375 4.0767C17.7936 4.15436 17.6818 4.26515 17.6023 4.40909C17.5246 4.55303 17.4858 4.72443 17.4858 4.9233H16.483C16.483 4.55398 16.5672 4.23295 16.7358 3.96023C16.9044 3.6875 17.1364 3.47633 17.4318 3.3267C17.7292 3.17708 18.0701 3.10227 18.4545 3.10227C18.8447 3.10227 19.1875 3.17519 19.483 3.32102C19.7784 3.46686 20.0076 3.66667 20.1705 3.92045C20.3352 4.17424 20.4176 4.46401 20.4176 4.78977C20.4176 5.00758 20.3759 5.22159 20.2926 5.43182C20.2093 5.64205 20.0625 5.875 19.8523 6.13068C19.6439 6.38636 19.3513 6.69602 18.9744 7.05966L17.9716 8.07955V8.11932H20.5057V9H16.517Z" fill="white"/>
</svg>
